<svg fill="#000000" xmlns="http://www.w3.org/2000/svg" height="24" viewBox="0 -960 960 960" width="24"><path d="M180-200q-25.308 0-42.654-17.346Q120-234.692 120-260v-435.385q0-25.308 19.654-44.961Q159.307-760 184.615-760h199.231l80 80h311.539q20.692 0 36.115 11.192 15.423 11.193 21.577 28.808H447.769l-80-80H184.615q-10.769 0-17.692 6.923T160-695.385v430.77q0 8.461 4.231 13.846 4.23 5.384 11.154 9.231L266-544.615h648.616l-90.693 302.231q-5.692 19.077-21.808 30.73Q786-200 766.154-200H180Zm37.077-40h564.461l78.923-264.615H296L217.077-240Zm0 0L296-504.615 217.077-240ZM160-640v-80 80Z"/></svg>